<?xml version="1.0" standalone="no"?>
<!DOCTYPE svg PUBLIC "-//W3C//DTD SVG 20010904//EN"
 "http://www.w3.org/TR/2001/REC-SVG-20010904/DTD/svg10.dtd">
<svg version="1.0" xmlns="http://www.w3.org/2000/svg"
 width="1014.000000pt" height="1080.000000pt" viewBox="0 0 1014.000000 1080.000000"
 preserveAspectRatio="xMidYMid meet">

<g transform="translate(0.000000,1080.000000) scale(0.100000,-0.100000)"
fill="#000000" stroke="none">
<path d="M4300 9414 c-47 -2 -222 -8 -390 -14 -645 -22 -1300 -74 -1630 -130
-258 -43 -503 -167 -699 -355 -224 -215 -340 -447 -380 -766 -183 -1425 -183
-4109 0 -5504 35 -269 155 -518 344 -710 180 -184 395 -308 638 -370 133 -33
631 -93 967 -115 1283 -84 3385 -72 4350 26 256 26 577 74 667 100 473 136
835 516 927 971 23 112 71 595 96 968 83 1222 76 2965 -16 4030 -49 572 -69
720 -120 875 -103 311 -344 579 -663 740 -167 83 -266 107 -591 145 -376 43
-667 65 -1295 96 -193 10 -2009 20 -2205 13z m-40 -1094 c143 -23 293 -90 405
-181 109 -89 182 -193 232 -335 l28 -79 0 -2400 0 -2400 -27 -73 c-70 -193
-212 -334 -398 -393 -82 -27 -255 -36 -343 -19 -179 34 -317 159 -387 348 -19
50 -33 76 -42 74 -7 -2 -42 -10 -78 -18 -304 -65 -574 112 -660 431 -12 44
-25 84 -29 88 -4 4 -45 17 -92 28 -223 53 -375 187 -424 374 -30 118 -14 260
46 394 16 35 29 65 29 67 0 1 -30 19 -67 39 -132 75 -238 211 -290 372 -83
262 -31 635 126 913 l41 71 -40 67 c-130 216 -140 539 -24 790 62 134 175 268
276 325 31 17 37 26 32 42 -32 101 -43 160 -43 242 -1 122 12 180 66 292 62
130 154 222 286 285 50 24 116 49 145 55 66 14 166 14 211 1 19 -5 36 -8 38
-6 2 1 10 28 18 59 68 261 322 481 625 542 80 16 252 18 340 5z m2098 -6 c290
-60 529 -257 617 -510 l24 -68 128 -1 c119 0 133 -3 204 -31 103 -42 206 -112
275 -187 63 -70 135 -209 155 -298 16 -77 7 -247 -18 -325 l-20 -61 43 -27
c161 -102 270 -247 326 -435 29 -98 36 -311 14 -420 -21 -104 -56 -198 -102
-276 -34 -57 -35 -61 -20 -85 44 -67 117 -225 144 -310 42 -133 55 -237 50
-398 -5 -118 -10 -150 -36 -232 -18 -52 -48 -124 -69 -159 -52 -88 -146 -180
-227 -222 -36 -19 -66 -38 -66 -42 0 -4 13 -34 29 -65 94 -185 85 -392 -23
-555 -42 -63 -86 -105 -158 -149 -31 -19 -48 -37 -48 -49 0 -35 -30 -93 -68
-133 -56 -58 -123 -86 -207 -86 l-70 0 -32 -68 c-60 -127 -180 -232 -312 -272
-88 -28 -213 -28 -299 -1 l-63 19 -10 -26 c-60 -168 -149 -278 -280 -347 -165
-87 -363 -85 -544 4 -143 71 -247 188 -303 343 l-27 73 -3 2399 c-2 2678 -9
2447 70 2606 60 120 186 246 313 312 79 41 186 78 265 91 67 11 276 6 348 -9z"/>
<path d="M6011 8035 c-203 -46 -341 -181 -371 -365 -7 -45 -10 -770 -8 -2375
l3 -2310 23 -57 c83 -206 350 -284 505 -148 55 49 90 118 112 225 19 94 39
132 85 162 44 31 84 29 175 -8 151 -60 260 -60 345 2 35 25 100 109 100 129 0
4 -24 23 -53 43 -75 52 -185 168 -242 255 -71 111 -97 182 -104 287 l-6 89
-35 7 c-19 4 -72 14 -118 23 -230 43 -464 204 -561 386 -52 96 -35 182 45 227
86 50 165 23 230 -78 95 -147 238 -230 420 -245 194 -15 366 67 474 226 59 87
141 114 220 71 38 -20 80 -88 80 -130 0 -64 -94 -198 -196 -283 -53 -44 -137
-94 -204 -123 -25 -10 -49 -22 -54 -26 -18 -16 12 -167 45 -229 37 -71 112
-156 180 -206 48 -35 53 -36 109 -31 179 19 351 152 380 294 15 71 0 153 -41
235 l-30 59 44 57 c132 172 296 458 323 562 23 88 23 243 0 343 -9 42 -19 77
-20 77 -2 0 -50 -22 -107 -50 -267 -127 -545 -179 -879 -166 -245 9 -287 21
-337 96 -58 84 1 217 104 236 21 4 84 -1 150 -11 222 -35 473 -8 708 75 95 34
200 83 209 99 3 5 -8 35 -25 68 -40 76 -36 124 20 203 91 131 131 252 131 400
0 153 -36 256 -121 345 -102 108 -212 156 -359 157 -143 2 -249 -44 -308 -132
l-23 -35 103 -5 c121 -6 158 -22 188 -80 38 -75 17 -162 -50 -207 -31 -22 -43
-23 -202 -23 -132 0 -193 5 -271 21 -406 82 -715 304 -837 600 -56 136 -64
180 -65 364 0 161 1 172 24 208 27 43 85 77 133 77 50 -1 115 -34 138 -72 17
-29 20 -50 20 -163 0 -156 17 -244 65 -342 59 -119 214 -246 383 -312 49 -20
53 -20 58 -3 3 9 21 50 40 89 51 106 135 188 255 247 122 59 187 75 337 83
l122 6 11 41 c32 113 0 241 -82 331 -105 114 -251 151 -420 107 -135 -36 -206
2 -229 118 -5 30 -15 79 -21 107 -31 155 -166 293 -347 356 -106 36 -266 46
-371 22z"/>
</g>
</svg>
